<svg xmlns="http://www.w3.org/2000/svg" viewBox="0 0 1200 675">
<rect width="1200" height="675" fill="#eef6ff"/><g stroke="#a8c3df" stroke-width="1" opacity=".55"><path d="M0 110h1200M0 220h1200M0 330h1200M0 440h1200M0 550h1200M150 0v675M300 0v675M450 0v675M600 0v675M750 0v675M900 0v675M1050 0v675"/></g>
<g fill="none" stroke="#174b7d" stroke-width="5"><ellipse cx="600" cy="337" rx="330" ry="150"/><path d="M360 260L470 190M840 260L730 190M360 414L470 484M840 414L730 484"/><circle cx="470" cy="190" r="65"/><circle cx="730" cy="190" r="65"/><circle cx="470" cy="484" r="65"/><circle cx="730" cy="484" r="65"/><circle cx="600" cy="337" r="105"/><path d="M495 337h210M600 232v210"/></g>
<text x="55" y="70" font-family="Arial" font-size="28" font-weight="700" fill="#12385f" letter-spacing="5">V8 ENGINE</text><text x="55" y="610" font-family="Arial" font-size="18" fill="#52708e" letter-spacing="3">FUSION 360 • COMPLEX ASSEMBLY • 2 VIDEOS</text></svg>
